<svg width="48" height="48" viewBox="0 0 48 48" fill="none" xmlns="http://www.w3.org/2000/svg">
<g clip-path="url(#clip0_624_1318)">
<path d="M45.3505 -8.68848e-07H2.64734C1.18506 0.000731553 -0.000366126 1.18689 8.48268e-08 2.64953V45.3527C0.000732507 46.8149 1.18689 48.0004 2.64954 48H45.3505C46.8135 48.0004 47.9996 46.8146 48 45.3516C48 45.3512 48 45.3508 48 45.3505V2.64734C47.9993 1.18506 46.8131 -0.00036708 45.3505 -8.68848e-07Z" fill="#4267B2"/>
<path d="M33.1406 48V29.4375H39.3984L40.3359 22.1719H33.1406V17.5444C33.1406 15.4457 33.7233 14.0156 36.7328 14.0156H40.5469V7.53479C39.8833 7.44653 37.6066 7.24915 34.9574 7.24915C29.4261 7.24915 25.6406 10.6241 25.6406 16.8248V22.1719H19.4062V29.4375H25.6406V48H33.1406Z" fill="white"/>
</g>
<defs>
<clipPath id="clip0_624_1318">
<rect width="48" height="48" fill="white"/>
</clipPath>
</defs>
</svg>
