<svg width="48" height="48" viewBox="0 0 48 48" fill="none" xmlns="http://www.w3.org/2000/svg">
<path d="M14.0003 16.0736L20.4223 33.322L14.5333 34.0972C13.9317 34.2012 13.384 34.507 12.9811 34.9639C12.5454 35.4404 11.5994 36.4598 12.187 36.7279L23.7638 42L36.136 37.6703C36.4596 37.4761 36.713 37.1846 36.8598 36.8378C37.0065 36.491 37.0391 36.1068 36.9528 35.7404L35.0422 26.1412C34.9878 25.7887 34.8326 25.4592 34.5951 25.1923C34.3576 24.9253 34.0479 24.7322 33.7031 24.6361L23.3814 23.5158L22.3209 24.1317L18.7528 14.5246C18.4608 13.9582 17.9842 13.5076 17.4012 13.2466C16.8182 12.9857 16.1635 12.9299 15.5445 13.0884C14.981 13.3323 14.5195 13.7626 14.238 14.3067C13.9566 14.8507 13.8726 15.4749 14.0003 16.0736Z" fill="white" stroke="black" stroke-linecap="round" stroke-linejoin="round"/>
<path d="M13.501 21C12.3558 20.3929 11.4213 19.5002 10.8055 18.4254C10.1897 17.3505 9.91792 16.1375 10.0215 14.9266C10.1251 13.7157 10.5999 12.5566 11.3909 11.5833C12.1819 10.6101 13.2568 9.86252 14.4912 9.42721C15.7255 8.99189 17.0688 8.8866 18.3656 9.12355C19.6623 9.36049 20.8595 9.92998 21.8186 10.7661C22.7776 11.6022 23.4593 12.6707 23.7847 13.8479C24.1101 15.0252 24.0659 16.263 23.6572 17.4181" stroke="black" stroke-linecap="round" stroke-linejoin="round"/>
</svg>
