<svg width="79" height="77" viewBox="0 0 79 77" fill="none" xmlns="http://www.w3.org/2000/svg">
<path d="M78.6484 74.0574L60.5509 17.3769C60.5572 17.318 59.7019 12.1819 59.7019 12.1819C62.3148 13.029 64.8605 14.071 67.3175 15.2992L70.1494 16.715C71.4186 17.0842 72.0392 16.2674 72.0392 15.5469C72.0393 15.361 71.9995 15.1772 71.9226 15.0079C71.8456 14.8387 71.7333 14.6879 71.5931 14.5657C64.9902 8.78759 57.1269 4.63458 48.6319 2.43884C40.137 0.243091 31.2461 0.065524 22.6703 1.92033L4.42699 5.86321C3.75857 6.00779 3.12517 6.28262 2.56296 6.672C2.00075 7.06137 1.52074 7.55767 1.15033 8.13256C0.402259 9.29359 0.146044 10.7042 0.438052 12.0542C0.730059 13.4041 1.54637 14.5828 2.7074 15.3308C3.86843 16.0789 5.27908 16.3351 6.62902 16.0431L31.1537 10.7407C37.3857 9.38993 43.8059 9.13962 50.1241 10.0011L54.196 19.1262L56.1594 25.4545C56.1505 25.4668 55.5523 27.212 54.3499 28.2066C52.3785 27.5851 50.372 27.081 48.3409 26.697C48.8077 26.0522 49.1739 25.3402 49.427 24.5855C49.4827 24.4184 49.4697 24.236 49.391 24.0784C49.3122 23.9209 49.1741 23.8011 49.007 23.7454C48.8399 23.6897 48.6575 23.7027 48.5 23.7814C48.3424 23.8602 48.2226 23.9983 48.1669 24.1654C47.8869 25.0037 47.4402 25.7766 46.8538 26.4379C44.7352 26.0998 42.5978 25.8922 40.4537 25.8163C40.7638 25.4859 41.063 25.1446 41.3467 24.79C41.4568 24.6525 41.5077 24.4769 41.4883 24.3018C41.4689 24.1267 41.3808 23.9666 41.2433 23.8565C41.1058 23.7464 40.9302 23.6955 40.7551 23.7149C40.58 23.7343 40.4198 23.8224 40.3098 23.9599C39.788 24.6117 39.2157 25.2214 38.5983 25.7834C27.0624 25.7851 15.8513 29.6046 6.71369 36.646C6.64369 36.6989 6.58485 36.7651 6.54059 36.8408C6.49633 36.9166 6.46751 37.0003 6.45581 37.0873C6.4441 37.1742 6.44974 37.2626 6.4724 37.3474C6.49505 37.4321 6.53428 37.5116 6.58781 37.5811C6.64133 37.6506 6.7081 37.7088 6.78426 37.7523C6.86041 37.7959 6.94444 37.8239 7.03149 37.8348C7.11854 37.8457 7.20688 37.8392 7.29142 37.8158C7.37596 37.7923 7.45501 37.7524 7.52401 37.6982C14.6405 32.2204 23.0768 28.7181 31.9804 27.545C33.6105 27.3307 35.2447 27.1963 36.883 27.1416C35.55 28.1867 34.0193 28.9512 32.383 29.3891C23.037 30.5126 14.1681 34.1401 6.71369 39.8883C6.64369 39.9412 6.58485 40.0074 6.54059 40.0831C6.49633 40.1589 6.46751 40.2426 6.45581 40.3296C6.4441 40.4165 6.44974 40.5049 6.4724 40.5897C6.49505 40.6744 6.53428 40.7538 6.58781 40.8233C6.64133 40.8929 6.7081 40.9511 6.78426 40.9946C6.86041 41.0382 6.94444 41.0662 7.03149 41.0771C7.11854 41.088 7.20688 41.0815 7.29142 41.0581C7.37596 41.0346 7.45501 40.9947 7.52401 40.9405C13.0144 36.7081 19.3108 33.6406 26.0278 31.9258C24.0179 33.3786 22.4316 35.3409 21.4324 37.6105C20.4331 39.8802 20.0569 42.3753 20.3427 44.8387C20.6284 47.3021 21.5656 49.6448 23.0579 51.6255C24.5501 53.6063 26.5434 55.1534 28.8324 56.1075C21.9037 55.9778 15.0741 54.4365 8.76116 51.5779C8.68156 51.5411 8.59544 51.5204 8.50778 51.517C8.42013 51.5136 8.33267 51.5276 8.25046 51.5582C8.16825 51.5888 8.09292 51.6354 8.02881 51.6953C7.96471 51.7552 7.91311 51.8272 7.87699 51.9071C7.84087 51.987 7.82094 52.0733 7.81837 52.161C7.81579 52.2487 7.83061 52.336 7.86197 52.418C7.89334 52.4999 7.94062 52.5748 8.00109 52.6383C8.06157 52.7019 8.13403 52.7528 8.2143 52.7882C16.8483 56.7021 26.3852 58.1909 35.8013 57.0948C45.2175 55.9988 54.1574 52.3592 61.6615 46.5668C61.7315 46.5139 61.7904 46.4477 61.8346 46.3719C61.8789 46.2962 61.9077 46.2124 61.9194 46.1255C61.9311 46.0385 61.9255 45.9501 61.9028 45.8654C61.8802 45.7806 61.8409 45.7012 61.7874 45.6317C61.7339 45.5622 61.6671 45.504 61.591 45.4604C61.5148 45.4169 61.4308 45.3888 61.3437 45.3779C61.2567 45.367 61.1683 45.3735 61.0838 45.397C60.9993 45.4204 60.9202 45.4604 60.8512 45.5145C55.3573 49.7517 49.0562 52.8227 42.3338 54.5393C44.3467 53.0896 45.9364 51.1292 46.939 48.8603C47.9417 46.5913 48.321 44.0961 48.0378 41.6317C47.7546 39.1673 46.8193 36.8231 45.3281 34.8407C43.837 32.8583 41.8441 31.3096 39.5549 30.3542C46.2881 30.4799 52.9296 31.9397 59.0949 34.6492L72.3221 76.0772C72.3756 76.245 72.4937 76.3846 72.6502 76.4653C72.8067 76.5461 72.9889 76.5613 73.1567 76.5078C73.3245 76.4542 73.4641 76.3361 73.5448 76.1796C73.6256 76.0231 73.6408 75.8409 73.5873 75.6731L58.0349 26.963L61.8307 25.751L77.3829 74.4614C77.4094 74.5444 77.452 74.6215 77.5083 74.6881C77.5646 74.7547 77.6335 74.8096 77.711 74.8496C77.7885 74.8896 77.8731 74.9139 77.96 74.9212C78.0469 74.9285 78.1344 74.9186 78.2175 74.8921C78.3006 74.8656 78.3776 74.8229 78.4443 74.7666C78.5109 74.7104 78.5657 74.6415 78.6057 74.564C78.6457 74.4865 78.6701 74.4019 78.6774 74.3149C78.6847 74.228 78.6748 74.1405 78.6482 74.0574H78.6484ZM49.8429 7.88179C49.7031 8.09411 49.6282 8.34248 49.6271 8.59665C43.3724 7.82152 37.0317 8.10777 30.8723 9.44333L6.34763 14.7452C5.34449 14.9561 4.29865 14.7615 3.43858 14.2038C2.57851 13.6461 1.9741 12.7706 1.75741 11.7687C1.54072 10.7668 1.72934 9.71989 2.28208 8.85662C2.83483 7.99334 3.70675 7.38391 4.70739 7.16145L22.9508 3.21841C31.2945 1.41381 39.9439 1.57944 48.2123 3.70215C56.4808 5.82487 64.1404 9.8462 70.5829 15.4468L67.912 14.1114C65.1894 12.751 62.3608 11.6142 59.454 10.712L59.2005 9.20925C59.1146 8.69868 58.8521 8.23448 58.4589 7.89768C58.0657 7.56089 57.5667 7.37288 57.0489 7.36648L50.9583 7.28928C50.7374 7.28523 50.5191 7.3375 50.3239 7.44116C50.1288 7.54482 49.9632 7.69646 49.8429 7.88179ZM57.0323 8.69527C57.239 8.69774 57.4382 8.77275 57.5952 8.90717C57.7522 9.0416 57.8569 9.2269 57.8911 9.43072L59.1431 16.8506L55.1972 18.1105L50.9612 8.61741L57.0323 8.69527ZM56.7584 27.3305L57.376 29.2649C56.8421 29.0597 56.3053 28.8635 55.7657 28.6762C56.1449 28.2653 56.4777 27.8139 56.7581 27.33L56.7584 27.3305ZM49.0719 30.0761C47.6926 29.7941 46.3076 29.5688 44.9169 29.4002C45.8025 29.0366 46.615 28.5154 47.3148 27.8619C49.209 28.1897 51.0832 28.6243 52.9283 29.1637C51.3994 30.0459 49.0721 30.0756 49.0721 30.0756L49.0719 30.0761ZM39.0962 27.1162C41.2477 27.1367 43.3958 27.2932 45.5276 27.5847C44.8355 28.0384 43.7896 28.8859 40.6345 29.0572C39.1873 29.0011 37.7413 29.0052 36.2965 29.0695C37.2918 28.5119 38.2296 27.8574 39.0964 27.1157L39.0962 27.1162ZM46.72 41.7691C47.0142 44.3083 46.5297 46.8771 45.3308 49.1347C44.1319 51.3924 42.2752 53.2324 40.0068 54.4109C37.7384 55.5894 35.1654 56.0506 32.6289 55.7335C30.0924 55.4164 27.7122 54.336 25.8037 52.6354C23.8952 50.9347 22.5486 48.6943 21.9424 46.2109C21.3362 43.7276 21.499 41.1187 22.4092 38.73C23.3195 36.3413 24.9342 34.2856 27.0393 32.8354C29.1444 31.3853 31.6405 30.6091 34.1967 30.6098C37.288 30.6151 40.2701 31.7539 42.5781 33.8104C44.8861 35.8669 46.3598 38.6984 46.7201 41.7686L46.72 41.7691ZM52.2675 30.8348C53.1124 30.5922 53.9089 30.2053 54.6218 29.6911C55.7257 30.0563 56.8177 30.4595 57.8978 30.9007L58.5618 32.9792C56.5113 32.1318 54.409 31.4154 52.2677 30.8343L52.2675 30.8348ZM57.631 25.6983L55.6113 19.3731L59.4069 18.1611L61.4266 24.4863L57.631 25.6983ZM28.211 43.1487C28.211 44.3307 28.5616 45.4862 29.2183 46.4691C29.875 47.4519 30.8084 48.2179 31.9005 48.6703C32.9925 49.1226 34.1942 49.241 35.3536 49.0104C36.5129 48.7798 37.5778 48.2106 38.4137 47.3747C39.2495 46.5389 39.8187 45.474 40.0493 44.3146C40.2799 43.1553 40.1616 41.9536 39.7092 40.8615C39.2569 39.7695 38.4908 38.836 37.508 38.1793C36.5252 37.5226 35.3697 37.1721 34.1876 37.1721C32.6031 37.1739 31.0839 37.8041 29.9635 38.9245C28.843 40.045 28.2128 41.5641 28.211 43.1487ZM38.836 43.1487C38.836 44.068 38.5634 44.9668 38.0526 45.7312C37.5419 46.4956 36.8159 47.0914 35.9665 47.4433C35.1171 47.7951 34.1825 47.8871 33.2807 47.7078C32.379 47.5284 31.5508 47.0857 30.9007 46.4356C30.2506 45.7855 29.8078 44.9572 29.6285 44.0555C29.4491 43.1538 29.5412 42.2192 29.893 41.3698C30.2448 40.5204 30.8406 39.7944 31.6051 39.2836C32.3695 38.7728 33.2682 38.5002 34.1876 38.5002C35.42 38.5016 36.6016 38.9918 37.473 39.8633C38.3444 40.7347 38.8346 41.9162 38.836 43.1487Z" fill="url(#paint0_linear_755_1545)"/>
<defs>
<linearGradient id="paint0_linear_755_1545" x1="18.2662" y1="62.8999" x2="69.099" y2="12.0671" gradientUnits="userSpaceOnUse">
<stop stop-color="#560EA2"/>
<stop offset="1" stop-color="#F496A6"/>
</linearGradient>
</defs>
</svg>
