<svg width="77" height="65" viewBox="0 0 77 65" fill="none" xmlns="http://www.w3.org/2000/svg">
<path d="M70.8401 0.824027C66.8557 -0.172065 62.7385 2.08575 61.6096 6.26934C61.6096 6.33574 53.6409 36.8826 53.7073 36.8162C53.6409 37.0818 53.7073 37.4138 53.7737 37.6795L57.2268 49.2341C57.4924 50.0974 58.5549 50.363 59.1526 49.7654L67.9846 41.199C68.1174 41.0662 68.2503 40.867 68.3167 40.6677C72.5667 24.2654 70.5745 31.9021 71.3049 29.0467C71.4378 28.449 71.1057 27.7849 70.4417 27.6521C69.844 27.5193 69.1799 27.8514 69.0471 28.449L67.5198 34.4256L57.3596 31.7693L63.5354 7.92949L73.6956 10.5857L70.9065 21.4764C70.7737 22.074 71.1057 22.7381 71.7698 22.8709C72.3674 23.0037 73.0315 22.6717 73.1643 22.0076C76.3518 9.72246 76.2854 9.98808 76.2854 9.98808C77.2815 6.00371 74.8245 1.88653 70.8401 0.824027ZM70.2424 3.08184C72.6331 3.67949 74.2268 5.8709 74.1604 8.32793L64.2659 5.73809C65.3948 3.61309 67.8518 2.48418 70.2424 3.08184ZM58.9534 46.7107L56.5628 38.742L64.9299 40.9334L58.9534 46.7107ZM66.3909 38.9412L56.2307 36.2849L56.8284 34.0271L66.9885 36.6834L66.3909 38.9412ZM39.8948 34.6912C39.2971 34.492 38.6331 34.824 38.4339 35.4217C38.2346 36.0193 38.5667 36.6834 39.1643 36.8826C46.6682 39.2732 50.8518 44.7185 52.9768 48.4373C41.8206 40.6013 25.2854 38.6756 12.5354 45.9138C11.2073 46.7107 9.87916 47.574 8.68385 48.5037C4.16823 46.1795 3.10573 43.656 2.90651 42.1951C5.49635 42.5271 9.61354 41.4646 10.6096 40.9998C11.7385 40.4685 12.8674 40.0037 13.9299 39.5388C14.5276 39.3396 14.8596 38.6756 14.6604 38.0779C14.4612 37.4138 13.7307 37.1482 13.0667 37.4138C12.0042 37.8123 10.8753 38.4099 9.67995 38.8748C8.35182 39.406 4.16823 40.4685 2.24244 39.6717C1.51198 39.406 0.781508 39.8045 0.648695 40.4685C0.582289 40.7341 -0.812242 46.3787 7.95338 50.6951C11.6057 59.1951 23.2268 63.9763 32.9885 64.3084C42.1526 64.7732 51.4495 61.0544 56.9612 52.6873C57.1604 52.3552 57.2268 51.9568 57.094 51.6248C56.6292 50.6287 52.6448 38.6756 39.8948 34.6912ZM32.6565 62.0505C26.6799 61.5857 22.0315 56.6052 22.0315 50.5623C22.0315 48.3045 22.6956 46.1795 23.8909 44.3201C30.7971 43.0584 37.8362 43.8552 44.344 46.5115C47.3323 54.4138 41.0237 62.6482 32.6565 62.0505ZM10.2112 50.2302C13.3987 47.8396 16.9846 46.0466 20.8362 44.9177C18.512 50.2302 19.7073 56.406 23.8909 60.3904C17.5823 58.3982 12.3362 54.613 10.2112 50.2302ZM42.8831 60.7224C46.469 57.4021 48.0628 52.488 47.1331 47.7732C49.7229 49.0349 52.1135 50.5623 54.3714 52.3552C51.5159 56.2732 47.4651 59.1951 42.8831 60.7224ZM19.1096 36.4842C18.9104 35.8865 19.3089 35.2224 19.9065 35.0232C23.9573 33.8279 28.2073 33.2967 32.4573 33.4295C33.1214 33.4295 33.5862 34.0271 33.5862 34.6248C33.5862 35.2888 32.9885 35.7537 32.3909 35.7537C28.4065 35.6209 24.4221 36.1521 20.5706 37.281C19.9729 37.4802 19.3089 37.1482 19.1096 36.4842ZM32.3245 45.7146C29.6682 45.7146 27.4768 47.906 27.4768 50.5623C27.4768 53.2185 29.6682 55.4099 32.3245 55.4099C34.9807 55.4099 37.1721 53.2185 37.1721 50.5623C37.1721 47.906 35.0471 45.7146 32.3245 45.7146ZM32.3245 53.0857C30.9299 53.0857 29.801 51.9568 29.801 50.5623C29.801 49.1677 30.9299 48.0388 32.3245 48.0388C33.719 48.0388 34.8479 49.1677 34.8479 50.5623C34.8479 51.9568 33.719 53.0193 32.3245 53.0857Z" fill="url(#paint0_linear_755_22)"/>
<defs>
<linearGradient id="paint0_linear_755_22" x1="57.7269" y1="58.2278" x2="1.96856" y2="23.9488" gradientUnits="userSpaceOnUse">
<stop stop-color="#FA5E97"/>
<stop offset="1" stop-color="#737EE6"/>
</linearGradient>
</defs>
</svg>
