<svg width="85" height="45" viewBox="0 0 85 45" fill="none" xmlns="http://www.w3.org/2000/svg">
<path d="M84.5164 19.6723L70.7896 29.5389C68.8677 30.9193 67.209 32.6331 65.8922 34.5991C65.7204 34.8551 65.4541 35.0324 65.1516 35.0919C64.8492 35.1515 64.5355 35.0885 64.2795 34.9168C64.0235 34.7451 63.8462 34.4787 63.7866 34.1763C63.727 33.8739 63.79 33.5601 63.9617 33.3041C65.4331 31.108 67.2864 29.1935 69.4336 27.6516L80.2299 19.8907H61.6993C58.5513 19.8956 55.4931 20.9403 53 22.8624C50.1002 25.0984 46.5429 26.314 42.8811 26.3202H42.1181C38.456 26.314 34.8986 25.0985 31.9984 22.8624C29.5056 20.9399 26.4473 19.8952 23.2992 19.8907H4.76987L15.5662 27.6516C17.7134 29.1935 19.5667 31.108 21.0381 33.3041C22.8505 36.0119 25.3029 38.2308 28.1779 39.7642C31.0529 41.2976 34.2617 42.0982 37.5201 42.095H47.481C47.7892 42.095 48.0848 42.2174 48.3028 42.4354C48.5207 42.6533 48.6431 42.9489 48.6431 43.2571C48.6431 43.5653 48.5207 43.8609 48.3028 44.0789C48.0848 44.2968 47.7892 44.4192 47.481 44.4192H37.5201C33.8801 44.4226 30.2954 43.5282 27.0837 41.8151C23.872 40.1021 21.1324 37.6233 19.1076 34.5984C17.7911 32.6328 16.1329 30.9192 14.2115 29.5389L0.484012 19.6723C0.31696 19.5463 0.1865 19.3782 0.10607 19.185C0.0256397 18.9919 -0.00185259 18.7808 0.026425 18.5736C0.0547026 18.3663 0.137728 18.1703 0.266948 18.0058C0.396168 17.8413 0.566912 17.7142 0.76159 17.6376L9.75167 14.3352C15.7136 12.1357 21.1065 8.6275 25.5338 4.06879C26.4981 3.07101 27.6363 2.2575 28.8926 1.6682C29.1717 1.53681 29.4917 1.5217 29.782 1.62619C30.0722 1.73067 30.3091 1.9462 30.4405 2.22535C30.5719 2.5045 30.587 2.82441 30.4825 3.1147C30.3781 3.405 30.1625 3.64189 29.8834 3.77328C28.882 4.24294 27.9747 4.89126 27.2059 5.68644C22.5346 10.4962 16.844 14.1971 10.5532 16.5166L7.69772 17.5665H23.3032C26.9652 17.5728 30.5226 18.7884 33.4228 21.0243C35.9158 22.9466 38.974 23.9913 42.122 23.996H42.887C46.0351 23.9913 49.0933 22.9466 51.5863 21.0243C54.4864 18.7884 58.0439 17.5728 61.7059 17.5665H77.3114L74.4559 16.5166C68.163 14.1976 62.4705 10.4962 57.7979 5.68512C56.1161 3.94871 53.8146 2.94956 51.3976 2.9065C48.9807 2.86343 46.6451 3.77996 44.9025 5.45535L43.3087 6.99066C43.0922 7.19869 42.8035 7.31487 42.5032 7.31487C42.2029 7.31487 41.9143 7.19869 41.6977 6.99066L40.104 5.45535C39.1438 4.53483 37.9953 3.8336 36.7378 3.40007C36.4463 3.29995 36.2064 3.0881 36.071 2.81113C35.9357 2.53417 35.9159 2.21477 36.016 1.9232C36.1161 1.63163 36.328 1.39178 36.6049 1.25641C36.8819 1.12104 37.2013 1.10124 37.4929 1.20136C39.0701 1.74558 40.5105 2.62531 41.715 3.77992L42.5006 4.54094L43.2915 3.77992C45.4773 1.67806 48.4071 0.528251 51.4391 0.582396C54.4711 0.63654 57.358 1.89022 59.4674 4.06879C63.8946 8.6275 69.2875 12.1357 75.2495 14.3352L84.2389 17.6376C84.4073 17.7018 84.5586 17.804 84.681 17.9364C84.8034 18.0687 84.8936 18.2275 84.9445 18.4004C84.9954 18.5733 85.0057 18.7557 84.9745 18.9332C84.9433 19.1107 84.8716 19.2787 84.7648 19.4239C84.6899 19.5142 84.6067 19.5973 84.5164 19.6723ZM57.6551 39.2893C57.0301 39.6622 56.3852 40.0007 55.7234 40.3034C55.4431 40.4313 55.2251 40.6654 55.1174 40.9541C55.0096 41.2427 55.021 41.5624 55.149 41.8427C55.2769 42.123 55.511 42.3409 55.7996 42.4487C56.0883 42.5564 56.408 42.545 56.6883 42.4171C57.4281 42.0808 58.1488 41.7039 58.8471 41.2882C58.9826 41.2121 59.1015 41.1095 59.1966 40.9867C59.2918 40.8638 59.3614 40.7231 59.4012 40.5729C59.441 40.4227 59.4504 40.266 59.4286 40.1122C59.4068 39.9583 59.3544 39.8104 59.2744 39.6771C59.1945 39.5438 59.0886 39.428 58.9631 39.3363C58.8376 39.2447 58.6949 39.1792 58.5437 39.1437C58.3924 39.1081 58.2355 39.1033 58.0823 39.1295C57.9291 39.1556 57.7827 39.2123 57.6518 39.296L57.6551 39.2893Z" fill="url(#paint0_linear_755_1538)"/>
<defs>
<linearGradient id="paint0_linear_755_1538" x1="63.9876" y1="40.2117" x2="21.0214" y2="-2.75443" gradientUnits="userSpaceOnUse">
<stop stop-color="#FA5E97"/>
<stop offset="1" stop-color="#737EE6"/>
</linearGradient>
</defs>
</svg>
