<svg width="137" height="61" viewBox="0 0 137 61" fill="none" xmlns="http://www.w3.org/2000/svg">
<path d="M67.7115 2.25642C49.7228 0.138851 25.1525 18.7361 15.1159 28.2995C30.5913 38.6687 52.1828 20.8029 62.5009 13.8548C70.7554 8.2964 99.1557 12.9544 112.324 15.9782C104.948 12.2866 85.7002 4.37399 67.7115 2.25642Z" fill="#B7E6E4"/>
<path d="M67.7115 2.25642C49.7228 0.138851 25.1525 18.7361 15.1159 28.2995C30.5913 38.6687 52.1828 20.8029 62.5009 13.8548C70.7554 8.2964 99.1557 12.9544 112.324 15.9782C104.948 12.2866 85.7002 4.37399 67.7115 2.25642Z" fill="black" fill-opacity="0.2"/>
<path d="M37.6176 33.8106L37.7387 42.6311C37.7774 45.7514 37.2823 48.1466 36.2535 49.8168C35.2246 51.487 33.9652 52.4807 32.4751 52.798C31.7047 52.9621 30.946 52.9006 30.1993 52.6137C29.454 52.3331 29.0284 51.9444 28.9226 51.4478C28.7938 50.8428 29.105 50.1941 29.8561 49.5017C30.0121 50.234 30.3654 50.7678 30.9161 51.1031C31.4604 51.4399 32.121 51.5255 32.8978 51.3601C34.0376 51.1174 34.8044 50.4981 35.198 49.5024C35.5995 48.5116 35.7833 46.7651 35.7497 44.2628L35.6176 34.546C34.745 34.9182 34.1908 35.1294 33.9552 35.1795C33.1402 35.3531 32.5757 34.9375 32.2619 33.9326C32.576 34.0321 32.9304 34.0399 33.3252 33.9558C33.8283 33.8487 34.6335 33.5507 35.7409 33.062L36.6246 32.6641C37.4095 32.3173 38.1043 32.0794 38.7093 31.9506C39.4097 31.8014 39.9362 31.8358 40.2888 32.0536C40.6413 32.2714 40.9538 32.754 41.2261 33.5014C40.5703 33.235 39.8604 33.1832 39.0962 33.3459C38.6887 33.4327 38.1958 33.5876 37.6176 33.8106ZM50.3408 38.7094C49.8851 40.5704 49.1848 42.2206 48.2399 43.6599C47.3 45.0915 46.3875 45.9015 45.5024 46.09C44.8274 46.2337 44.2224 46.0497 43.6874 45.5379C43.1574 45.0184 42.786 44.2588 42.5731 43.2591C42.1487 41.266 42.3769 39.3836 43.2576 37.6118C44.1448 35.8387 45.3811 34.7833 46.9666 34.4456C47.9282 34.2409 49.033 34.3185 50.2812 34.6784C50.3206 34.0509 50.9325 33.6111 52.1169 33.3589C52.1933 33.3426 52.3182 33.3194 52.4915 33.2891C52.2465 33.9204 52.1308 34.7371 52.1446 35.7393L52.1551 36.5858C52.163 37.5293 52.2957 38.606 52.5534 39.8158C52.8503 41.2104 53.3235 41.8385 53.973 41.7002C54.6607 41.5537 55.4779 40.7806 56.4246 39.3809C57.3763 37.9734 58.2393 36.2587 59.0135 34.2367L59.8683 34.5938C59.1378 36.946 58.1646 38.987 56.9488 40.717C55.7316 42.4406 54.5786 43.4184 53.4897 43.6502C52.1143 43.9431 51.1825 42.9434 50.6944 40.651C50.5927 40.1735 50.4748 39.5263 50.3408 38.7094ZM50.3036 36.331C48.7806 35.7434 47.5766 35.5439 46.6915 35.7323C45.73 35.9371 45.0237 36.6999 44.5728 38.0207C44.1205 39.3351 44.0652 40.7947 44.4069 42.3993C44.6808 43.6856 45.238 44.2392 46.0786 44.0602C46.9891 43.8663 48.3049 41.496 50.0259 36.9493C50.0469 36.8916 50.1395 36.6855 50.3036 36.331ZM60.8681 39.0637C62.1299 33.7361 63.6395 30.8852 65.397 30.511C66.1675 30.3469 66.6714 30.822 66.9087 31.9364C67.0104 32.4139 67.074 33.5253 67.0995 35.2705L67.1427 38.2866C67.758 35.7061 68.5194 33.577 69.4269 31.8993C70.333 30.2153 71.2254 29.2798 72.1042 29.0927C73.0721 28.8866 73.6767 29.3502 73.918 30.4837C74.0048 30.8912 74.0602 31.8546 74.0842 33.3738L74.1054 34.9269C74.1183 35.8627 74.1708 36.5471 74.263 36.9801C74.4258 37.7442 74.7777 38.0686 75.319 37.9533C76.5416 37.693 77.9359 35.0197 79.5021 29.9336L80.4 30.2116C78.7836 36.1871 76.9439 39.3946 74.8807 39.8339C73.5626 40.1146 72.7205 39.3953 72.3544 37.676C72.2324 37.103 72.1638 36.1557 72.1487 34.8343L72.1354 33.4593C72.1239 32.5298 72.0951 31.9569 72.049 31.7404C71.9906 31.4665 71.8214 31.3595 71.5412 31.4191C70.8535 31.5656 69.9122 33.1938 68.7174 36.3039C67.6366 39.1367 67.1341 40.7314 67.21 41.088C67.2182 41.1262 67.2452 41.1903 67.291 41.2804C67.2059 41.3185 67.0587 41.3931 66.8494 41.5042C66.7606 41.5564 66.6208 41.6028 66.4297 41.6435C65.8375 41.7696 65.4811 41.5493 65.3604 40.9826C65.3238 40.8107 65.3088 40.2714 65.3154 39.3647C65.319 39.0378 65.3179 38.6885 65.312 38.317L65.282 36.2067C65.2644 34.6861 65.2244 33.7794 65.162 33.4865C65.0711 33.0599 64.8697 32.8798 64.5577 32.9462C63.87 33.0926 63.1199 34.5404 62.3075 37.2894C61.4973 40.018 61.1424 41.6179 61.2428 42.0891C61.2712 42.2228 61.35 42.3425 61.479 42.4482C61.1613 42.6756 60.856 42.8204 60.5631 42.8828C59.9009 43.0238 59.4938 42.7378 59.342 42.0246C59.323 41.9354 59.2212 40.9886 59.0366 39.1841L58.8231 37.1029C58.7476 36.3734 58.6455 35.7062 58.5166 35.1013C58.3539 34.3372 58.0786 33.81 57.6906 33.5199C58.3723 33.0952 58.866 32.8503 59.1717 32.7852C59.732 32.6658 60.0827 32.9373 60.2237 33.5995C60.2739 33.8351 60.3839 34.727 60.5538 36.275L60.8681 39.0637ZM88.6089 28.4935C87.7068 31.3216 86.6721 33.6054 85.505 35.3449C84.3364 37.0782 83.1663 38.0695 81.9947 38.319C81.2815 38.4709 80.6557 38.3612 80.1174 37.9899C79.5854 37.6173 79.2387 37.0521 79.0774 36.2943C79.0163 36.0078 78.9831 35.5389 78.9775 34.8878L78.9639 33.7924C78.9532 32.2104 78.8828 31.1138 78.7526 30.5025C78.6753 30.1396 78.504 29.8665 78.2387 29.6834C79.0258 29.3161 79.5244 29.1101 79.7346 29.0653C80.2058 28.965 80.5119 29.2459 80.6529 29.9082C80.7573 30.3985 80.8148 31.1218 80.8254 32.078L80.8495 34.0199C80.8561 34.957 80.8878 35.5593 80.9448 35.8268C81.1129 36.6164 81.5313 36.94 82.1999 36.7976C82.9958 36.6281 83.9137 35.7337 84.9534 34.1145C85.9917 32.4889 86.9128 30.5155 87.7165 28.1943L88.6089 28.4935ZM79.083 25.4898L79.2188 25.4709C79.6413 25.3609 80.2072 25.0174 80.9164 24.4404C81.6305 23.8557 82.1683 23.3018 82.5295 22.7789C82.4365 23.7173 82.0964 24.5586 81.5093 25.3026C80.6194 26.4373 79.9834 27.0454 79.6013 27.1267C79.3466 27.181 79.186 27.0521 79.1196 26.7401C79.0247 26.2943 79.0125 25.8776 79.083 25.4898ZM88.2116 32.5919C88.6089 34.4576 89.5972 35.2224 91.1763 34.8861C92.5454 34.5945 93.9155 33.6205 95.2868 31.9639C96.658 30.3074 97.7787 28.2715 98.649 25.8563L99.5564 26.1323C98.8047 28.7286 97.5918 31.0038 95.9178 32.9578C94.2501 34.9105 92.5217 36.0773 90.7324 36.4583C89.5862 36.7024 88.6001 36.5263 87.7742 35.9301C86.9547 35.3324 86.4087 34.3937 86.1361 33.1138C85.7429 31.2672 86.0084 29.5598 86.9325 27.9918C87.863 26.4225 89.1784 25.4568 90.8785 25.0947C91.7 24.9198 92.3999 24.9871 92.9783 25.2966C93.5632 25.6047 93.9295 26.1058 94.0773 26.7999C94.32 27.9397 93.8472 29.0954 92.6589 30.267C91.477 31.4373 89.9946 32.2123 88.2116 32.5919ZM88.0928 31.6587C89.4087 31.3053 90.4672 30.6805 91.2681 29.7844C92.0755 28.8869 92.3822 27.9829 92.1883 27.0723C92.0147 26.2573 91.565 25.927 90.8391 26.0816C89.9731 26.266 89.2729 26.901 88.7386 27.9866C88.2043 29.0723 87.989 30.2963 88.0928 31.6587ZM95.7909 22.4311C96.0041 22.4323 96.184 22.4173 96.3304 22.3861C96.7825 22.2899 97.1271 22.0168 97.3641 21.5669C97.6012 21.1171 97.662 20.6215 97.5468 20.0803C97.3773 19.2843 96.8401 18.6998 95.9353 18.3267C96.5062 17.7258 97.0592 17.3684 97.594 17.2545C98.4791 17.0661 99.0302 17.4812 99.2471 18.5001C99.4573 19.487 99.3012 20.4888 98.7788 21.5053C98.2614 22.5141 97.6048 23.1032 96.8088 23.2727C96.3631 23.3677 96.0238 23.0871 95.7909 22.4311ZM108.138 28.9876C108.458 29.4255 108.664 29.8641 108.758 30.3034C108.965 31.2777 108.738 32.2114 108.076 33.1045C107.416 34.0039 106.538 34.5703 105.443 34.8035C104.8 34.9405 104.217 34.8915 103.694 34.6567C103.171 34.4218 102.861 34.072 102.762 33.6072C102.656 33.1105 102.858 32.5417 103.367 31.9007C103.882 31.2584 104.795 30.4318 106.104 29.4209L105.077 28.3514C103.829 27.053 103.115 25.9835 102.936 25.143C102.679 23.9332 103.175 22.8091 104.425 21.7708C105.361 21.9175 105.883 22.2423 105.99 22.7454C106.142 23.4586 105.737 24.2604 104.775 25.1508L106.291 26.9248L107.471 28.2911C108.532 27.3062 109.317 26.4901 109.825 25.8428C110.331 25.1891 110.94 24.2206 111.652 22.9375L112.516 23.2428C111.538 25.3682 110.078 27.2831 108.138 28.9876ZM106.697 30.193C105.04 31.5978 104.27 32.5771 104.388 33.1311C104.499 33.6533 104.933 33.8337 105.691 33.6723C106.251 33.553 106.666 33.265 106.935 32.8084C107.205 32.3581 107.276 31.8337 107.149 31.2351C107.073 30.8785 106.923 30.5312 106.697 30.193Z" fill="black"/>
</svg>
